<svg width="18" height="17" viewBox="0 0 18 17" fill="none" xmlns="http://www.w3.org/2000/svg">
<path d="M6.75 12.4375C6.43934 12.4375 6.1875 12.6893 6.1875 13C6.1875 13.3107 6.43934 13.5625 6.75 13.5625H11.25C11.5607 13.5625 11.8125 13.3107 11.8125 13C11.8125 12.6893 11.5607 12.4375 11.25 12.4375H6.75Z" fill="white"/>
<path fill-rule="evenodd" clip-rule="evenodd" d="M9 0.4375C8.46891 0.4375 7.9864 0.589615 7.46292 0.84418C6.95689 1.09026 6.37232 1.45307 5.64214 1.90624L4.09221 2.86817C3.40131 3.29696 2.84808 3.6403 2.42168 3.96686C1.98011 4.30502 1.64096 4.64942 1.39598 5.09697C1.15152 5.54359 1.04143 6.01881 0.988642 6.58053C0.937489 7.12491 0.937494 7.79059 0.9375 8.62542V9.83489C0.93749 11.2628 0.937481 12.3899 1.05203 13.2712C1.16953 14.1752 1.41642 14.9051 1.97427 15.4821C2.53469 16.0618 3.24784 16.3207 4.1307 16.4435C4.98637 16.5625 6.07917 16.5625 7.45639 16.5625H10.5436C11.9208 16.5625 13.0136 16.5625 13.8693 16.4435C14.7522 16.3207 15.4653 16.0618 16.0257 15.4821C16.5836 14.9051 16.8305 14.1752 16.948 13.2712C17.0625 12.3899 17.0625 11.2628 17.0625 9.8349V8.62541C17.0625 7.7906 17.0625 7.12489 17.0114 6.58053C16.9586 6.01881 16.8485 5.54359 16.604 5.09697C16.359 4.64942 16.0199 4.30502 15.5783 3.96686C15.1519 3.6403 14.5987 3.29696 13.9078 2.86819L12.3578 1.90624C11.6277 1.45307 11.0431 1.09026 10.5371 0.84418C10.0136 0.589615 9.53109 0.4375 9 0.4375ZM6.20965 2.87809C6.97147 2.40528 7.50712 2.07365 7.95491 1.8559C8.39117 1.64374 8.70014 1.5625 9 1.5625C9.29987 1.5625 9.60883 1.64374 10.0451 1.8559C10.4929 2.07365 11.0285 2.40528 11.7904 2.87809L13.2904 3.80903C14.011 4.25627 14.5169 4.57101 14.8943 4.86002C15.2615 5.14123 15.4728 5.37329 15.6172 5.63714C15.7621 5.90192 15.8467 6.21149 15.8913 6.68578C15.9369 7.17144 15.9375 7.78436 15.9375 8.65294V9.79371C15.9375 11.2719 15.9364 12.3259 15.8324 13.1262C15.7302 13.9122 15.5377 14.3683 15.2169 14.7001C14.8986 15.0293 14.4654 15.2248 13.7143 15.3293C12.9451 15.4362 11.9306 15.4375 10.5 15.4375H7.5C6.06935 15.4375 5.05487 15.4362 4.28567 15.3293C3.53464 15.2248 3.10135 15.0293 2.78309 14.7001C2.46226 14.3683 2.26981 13.9122 2.16764 13.1262C2.06362 12.3259 2.0625 11.2719 2.0625 9.79371V8.65294C2.0625 7.78436 2.06307 7.17144 2.10871 6.68578C2.15328 6.21149 2.23789 5.90192 2.38282 5.63714C2.52724 5.37329 2.73849 5.14123 3.10569 4.86002C3.48307 4.57101 3.98902 4.25627 4.70965 3.80903L6.20965 2.87809Z" fill="white"/>
</svg>
