<svg width="20" height="20" viewBox="0 0 20 20" fill="none" xmlns="http://www.w3.org/2000/svg">
<path d="M5.90909 1.59091C5.90909 0.712727 6.62182 0 7.5 0H12.5C13.3782 0 14.0909 0.712727 14.0909 1.59091V3.63636H18.4091C19.2873 3.63636 20 4.34909 20 5.22727V18.4091C20 18.831 19.8324 19.2357 19.534 19.534C19.2357 19.8324 18.831 20 18.4091 20H1.59091C1.16897 20 0.76432 19.8324 0.465966 19.534C0.167613 19.2357 0 18.831 0 18.4091V5.22727C0 4.34909 0.712727 3.63636 1.59091 3.63636H5.90909V1.59091ZM1.36364 10.9V18.4091C1.36364 18.5345 1.46545 18.6364 1.59091 18.6364H18.4091C18.4694 18.6364 18.5272 18.6124 18.5698 18.5698C18.6124 18.5272 18.6364 18.4694 18.6364 18.4091V10.9C17.9388 11.4937 17.0524 11.8193 16.1364 11.8182H3.86364C2.94761 11.8193 2.0612 11.4937 1.36364 10.9ZM18.6364 7.95455V5.22727C18.6364 5.167 18.6124 5.10919 18.5698 5.06657C18.5272 5.02394 18.4694 5 18.4091 5H1.59091C1.53063 5 1.47283 5.02394 1.4302 5.06657C1.38758 5.10919 1.36364 5.167 1.36364 5.22727V7.95455C1.36364 8.61759 1.62703 9.25347 2.09587 9.72231C2.56471 10.1912 3.2006 10.4545 3.86364 10.4545H16.1364C16.7994 10.4545 17.4353 10.1912 17.9041 9.72231C18.373 9.25347 18.6364 8.61759 18.6364 7.95455ZM12.7273 1.59091C12.7273 1.53063 12.7033 1.47283 12.6607 1.4302C12.6181 1.38758 12.5603 1.36364 12.5 1.36364H7.5C7.43972 1.36364 7.38192 1.38758 7.33929 1.4302C7.29667 1.47283 7.27273 1.53063 7.27273 1.59091V3.63636H12.7273V1.59091Z" fill="#151821"/>
</svg>
